<?xml version="1.0" encoding="iso-8859-1"?>
<!-- Generator: Adobe Illustrator 18.0.0, SVG Export Plug-In . SVG Version: 6.00 Build 0)  -->
<!DOCTYPE svg PUBLIC "-//W3C//DTD SVG 1.1//EN" "http://www.w3.org/Graphics/SVG/1.1/DTD/svg11.dtd">
<svg version="1.1" id="_x34_" xmlns="http://www.w3.org/2000/svg" xmlns:xlink="http://www.w3.org/1999/xlink" x="0px" y="0px"
	 viewBox="0 0 512 512" style="enable-background:new 0 0 512 512;" xml:space="preserve">
<g>
	<g>
		<path style="fill:#FDFEFE;" d="M465.123,106.305c-0.567,2.348-1.295,4.697-2.105,6.964c-0.809,2.186-1.862,4.289-2.833,6.475
			c-0.972,2.186-2.105,4.291-3.32,6.396c-2.429,4.048-5.181,8.015-8.339,11.579v0.079h-0.081c0,0.083,0,0.083,0,0.083
			c-0.081,0.079-0.162,0.16-0.243,0.241c-0.243,0.324-0.324,0.405-0.324,0.405c-1.376,1.538-2.833,2.995-4.21,4.372
			c-13.116,12.791-31.09,19.998-49.226,20.646c-1.296,0.081-2.591,0.081-3.806,0.081c-2.186-0.081-4.291-0.162-6.396-0.405
			c-7.044-0.729-13.926-2.429-20.403-5.183c-7.367-2.913-14.169-7.124-20.079-12.469c-0.891-0.808-1.781-1.617-2.591-2.427
			c-6.072-6.072-10.768-13.441-13.683-21.454c-1.538-4.455-2.672-8.988-2.996-13.765c-0.324-4.21-0.243-8.5,0.324-12.71
			c1.215-8.258,4.372-16.193,8.501-23.48c4.777-8.502,11.497-15.868,18.783-22.427c14.655-12.953,32.224-22.265,50.278-29.389
			c-0.405,2.67-0.89,5.424-1.295,8.177c-0.567,3.319-0.971,6.637-0.648,9.958c0.081,2.024,0.486,4.129,1.376,6.072
			c0.729,1.862,1.862,3.643,3.239,5.181c0.243,0.324,0.648,0.729,0.971,1.054c1.376,1.295,2.833,2.348,4.291,2.995
			c1.377,0.729,2.753,1.216,4.129,1.457c0.324,0.162,0.729,0.243,1.215,0.243c3.158,0.567,6.477,0.243,9.716-0.322
			c1.376-0.162,2.753-0.486,4.129-0.811c0.405-0.081,0.728-0.162,1.133-0.243c1.457-0.324,2.915-0.648,4.372-0.971
			c1.053-0.245,2.105-0.405,3.157-0.648c0.486-0.081,0.891-0.162,1.377-0.243c0.647-0.081,1.214-0.162,1.781-0.162
			c1.053-0.081,2.024-0.162,2.996-0.162c0.648,0,1.296,0,1.862,0.081c0.486,0,0.891,0.081,1.295,0.162
			c1.376,0.081,2.672,0.405,3.967,0.889c0.81,0.324,1.538,0.648,2.267,1.054c1.295,0.648,2.591,1.619,3.805,2.753
			c0.324,0.324,0.729,0.646,0.972,1.052c0.405,0.405,0.729,0.891,1.052,1.297c0.405,0.484,0.729,0.97,1.134,1.538
			c1.053,1.7,1.7,3.562,2.024,5.505c0.162,0.729,0.243,1.457,0.324,2.186c1.296,12.388-7.125,26.959,1.619,37.647v0.081
			C464.799,105.9,464.961,106.143,465.123,106.305z"/>
		<path style="fill:#EDBF4B;" d="M512,3.886v0.407c0,0.484-0.081,1.214-0.405,2.024c-0.243,0.808-0.647,1.457-1.133,2.265
			c0,0.081-0.081,0.162-0.162,0.324c-0.324,0.567-0.648,1.052-0.891,1.538c-0.243,0.324-0.405,0.648-0.567,0.892l-0.243,0.486
			l-0.324,0.405c-1.7,2.103-3.562,5.262-5.91,8.337c-0.648,0.81-1.215,1.621-1.781,2.51c-0.324,0.486-0.567,0.973-0.89,1.376
			c-0.324,0.486-0.648,0.891-0.972,1.378c-1.296,1.862-2.591,3.805-3.887,5.991c-0.566,1.133-1.295,2.186-2.024,3.319
			c-0.647,1.054-1.295,2.186-2.024,3.402c-0.647,1.214-1.295,2.427-1.943,3.724c-0.728,1.214-1.457,2.51-2.105,3.805
			c-0.647,1.295-1.376,2.591-2.024,3.967c-0.647,1.376-1.214,2.834-1.943,4.21c-1.376,2.833-2.671,5.829-3.886,8.905
			c-0.567,1.54-1.296,3.078-1.862,4.615c-0.648,1.619-1.215,3.159-1.781,4.859c-0.648,1.7-1.214,3.319-1.7,4.938
			c-0.647,1.7-1.214,3.321-1.781,5.021c-0.567,1.781-1.053,3.481-1.538,5.262c-0.324,0.892-0.486,1.781-0.81,2.672
			c-0.324,0.89-0.567,1.7-0.81,2.589c-1.053,3.564-1.943,7.288-2.834,11.012c-0.243,0.729-0.405,1.457-0.648,2.186
			c-0.162-0.162-0.324-0.405-0.486-0.567v-0.081c-8.744-10.688-0.324-25.259-1.619-37.647c0-0.729-0.162-1.457-0.324-2.186
			c-0.324-1.943-0.971-3.805-2.024-5.505c-0.324-0.486-0.729-1.054-1.134-1.538c-0.243-0.405-0.648-0.891-1.052-1.297
			c-0.243-0.405-0.647-0.727-0.972-1.052c-1.214-1.135-2.51-2.105-3.805-2.753c-0.729-0.405-1.538-0.808-2.267-1.054
			c-1.295-0.484-2.591-0.808-3.967-0.889c-0.405-0.081-0.809-0.162-1.295-0.162c-0.567-0.081-1.215-0.081-1.862-0.081
			c-0.972,0-1.943,0.081-2.996,0.162c-1.053,0.081-2.105,0.243-3.158,0.405c-1.053,0.243-2.105,0.403-3.157,0.648
			c-1.457,0.322-2.915,0.646-4.372,0.971c-0.405,0.081-0.728,0.162-1.133,0.243c-1.377,0.243-2.753,0.565-4.129,0.811
			c-3.32,0.565-6.639,0.808-9.716,0.322c-0.486,0-0.89-0.081-1.215-0.243c-1.376-0.324-2.752-0.727-4.129-1.457
			c-1.457-0.646-2.914-1.7-4.291-2.995c-0.324-0.324-0.729-0.729-0.971-1.054c-1.538-1.619-2.591-3.4-3.239-5.181
			c-0.89-1.943-1.295-4.048-1.376-6.072c-0.243-3.24,0.162-6.639,0.648-9.958c0.405-2.753,0.891-5.507,1.295-8.177
			c12.225-4.778,24.208-8.339,35.543-11.093c6.558-1.619,12.792-2.995,18.783-4.048c2.996-0.567,5.91-1.052,8.663-1.457
			c2.591-0.405,5.343-0.81,8.177-1.214c3.482-0.486,6.72-0.891,9.797-1.135c0.405-0.081,0.81-0.081,1.296-0.162
			c1.133-0.081,2.267-0.162,3.319-0.243c0.809-0.081,1.619-0.162,2.348-0.162c0.486,0,1.053-0.081,1.538-0.081
			c0.729,0,1.457-0.079,2.186-0.162c1.7-0.079,3.239-0.162,4.615-0.162c0.81,0,1.538,0,2.348,0.083h0.971
			c0.648,0,1.215,0.079,1.781,0.162c1.376,0.079,2.51,0.16,3.562,0.322c1.053,0.243,1.862,0.567,2.591,0.973
			c0.647,0.243,1.214,0.567,1.538,1.052c0.243,0.243,0.324,0.486,0.405,0.81C511.919,3.564,511.919,3.726,512,3.886z"/>
		<path style="fill:#7B692F;" d="M322.385,234.713c-0.648,1.214-1.457,2.427-2.348,3.562l-0.567,0.727
			c-0.405,0.486-0.891,0.973-1.295,1.378l-3.806,3.724l-3.158,3.078l-2.591,2.589l-0.566,0.486l-10.687,10.444L71.239,480.597
			c-4.372,4.372-9.959,6.721-15.869,7.043c-0.81,0-1.619,0.083-2.429,0.083c-1.296-0.083-2.591-0.162-3.887-0.405
			c-5.748-0.973-11.334-3.726-15.868-8.258L19.26,465.133L8.654,454.527c-4.534-4.534-7.286-10.12-8.177-15.787
			c-1.538-8.096,0.648-16.355,6.558-22.265l219.976-226.212l10.444-10.605c0,0,0,0,0-0.081l3.077-3.078l6.801-7.043l0.243-0.243
			l2.267-1.943c10.201-7.691,25.503-6.234,35.542,3.805l13.926,13.925l17.326,17.244
			C325.624,211.314,327.648,224.672,322.385,234.713z"/>
		<path style="opacity:0.2;fill:#040000;" d="M311.212,247.182l-2.591,2.589l-0.566,0.486l-10.687,10.444l-0.324-0.324
			l-36.514-36.595l-33.518-33.52l10.444-10.605c0,0,0,0,0-0.081l3.077-3.078l33.68,33.682L311.212,247.182z"/>
		<path style="fill:#EBE5EF;" d="M376.307,174.881l-3.886,4.048l-18.702,19.835l-33.68,39.511l-0.567,0.727l-8.177,9.555
			c-0.891,0.889-2.024,1.457-3.238,1.7c-0.243,0-0.567,0.081-0.81,0.081c-1.7,0.162-3.4-0.486-4.696-1.781L269.192,215.2
			l-30.037-30.037c-1.457-1.538-2.105-3.562-1.7-5.505c0,0,0,0,0-0.081c0.243-1.135,0.809-2.267,1.7-3.159l8.177-6.962l0.243-0.243
			l2.267-1.943l39.024-33.277l19.917-18.784l4.048-3.803c1.215-1.216,3.158-1.216,4.372,0l47.039,47.038l12.064,12.063
			C377.521,171.724,377.521,173.667,376.307,174.881z"/>
		<polygon style="opacity:0.2;fill:#040000;" points="372.42,178.929 353.718,198.764 319.633,164.679 288.866,133.994 
			308.783,115.21 338.902,145.411 		"/>
	</g>
	<path style="opacity:0.06;fill:#040000;" d="M511.272,3.886v0.407c0,0.484-0.081,1.214-0.405,2.024
		c-0.162,0.727-0.486,1.214-0.81,1.862c-0.162,0.241-0.324,0.484-0.486,0.727c-0.324,0.567-0.647,1.052-0.89,1.538
		c-0.243,0.324-0.405,0.648-0.567,0.892l-0.243,0.486l-0.324,0.405c-1.7,2.103-3.562,5.262-5.91,8.337
		c-0.567,0.81-1.215,1.621-1.781,2.51c-0.324,0.486-0.566,0.973-0.891,1.376c-0.324,0.486-0.647,0.891-0.971,1.378
		c-1.295,1.862-2.591,3.805-3.886,5.991c-0.567,1.133-1.296,2.186-1.943,3.319c-0.729,1.054-1.377,2.186-2.105,3.402
		c-0.648,1.214-1.296,2.427-1.943,3.724c-0.729,1.214-1.377,2.51-2.105,3.805c-0.648,1.295-1.296,2.591-2.024,3.967
		c-0.648,1.376-1.215,2.834-1.943,4.21c-1.377,2.833-2.672,5.829-3.887,8.905c-0.567,1.54-1.214,3.078-1.862,4.615
		c-0.648,1.619-1.215,3.159-1.781,4.859c-0.648,1.7-1.215,3.319-1.7,4.938c-0.648,1.7-1.215,3.321-1.782,5.021
		c-0.566,1.781-1.052,3.481-1.538,5.262c-0.324,0.892-0.486,1.781-0.809,2.672c-0.243,0.89-0.567,1.7-0.81,2.589
		c-1.052,3.564-1.943,7.288-2.834,11.012c-0.162,0.486-0.324,1.054-0.405,1.538v0.081c-0.081,0.162-0.081,0.405-0.162,0.567
		c-0.647,2.348-1.376,4.697-2.186,6.964c-0.81,2.186-1.862,4.289-2.834,6.475c-0.971,2.186-2.105,4.291-3.319,6.396
		c-2.51,4.21-5.344,8.339-8.663,11.982c-1.457,1.7-2.996,3.24-4.534,4.777c-12.792,12.631-30.604,19.755-48.497,20.646
		c-1.296,0.081-2.591,0.081-3.806,0.081h-0.728c-1.863,0-3.806-0.162-5.668-0.405c-6.882-0.567-13.602-2.267-19.998-4.777
		c-0.324-0.081-0.728-0.243-1.052-0.405l12.387,12.469c1.215,1.216,1.215,3.159,0,4.372l-3.481,3.724l-0.324,0.324l-18.46,19.43
		l-0.324,0.405l-30.604,35.949l-8.015,9.391l-3.805,4.453c-0.567,0.565-1.215,0.971-1.943,1.214
		c-0.324,0.162-0.728,0.243-1.133,0.324l-0.243,0.243l-10.201,10.039l-0.405,0.324L70.51,480.597
		c-4.21,4.21-9.553,6.477-15.14,7.043c-0.81,0-1.619,0.083-2.429,0.083c-1.296,0-2.51-0.083-3.806-0.324
		c-5.991-0.729-11.901-3.562-16.678-8.339l-13.602-13.601l0.405-0.324l3.806-3.807l237.464-237.544l8.663-8.583l5.02-5.019
		l25.099-25.18l20.322-20.322l19.269-19.268l2.267-2.267l89.707-89.708h0.081l52.383-52.464l0.081-0.081
		c0.405,0,0.809-0.081,1.215-0.081c0.89-0.081,1.781-0.162,2.59-0.243h0.729c0.809-0.081,1.619-0.162,2.348-0.162
		c0.486,0,1.053-0.081,1.538-0.081c0.486-0.079,0.971-0.162,1.457-0.162h0.729c1.7-0.079,3.239-0.162,4.615-0.162
		c0.81,0,1.538,0,2.348,0.083c0.324,0,0.729,0,1.052,0.079c0.324,0,0.648,0.083,0.972,0.083c1.377,0.079,2.591,0.16,3.562,0.322
		c1.053,0.243,1.862,0.567,2.591,0.973c0.648,0.243,1.215,0.567,1.538,1.052c0.243,0.243,0.324,0.486,0.405,0.81
		C511.191,3.564,511.272,3.726,511.272,3.886z"/>
</g>
</svg>
